<?xml version="1.0" encoding="UTF-8" standalone="no"?>
<svg
   width="330"
   height="215"
   viewBox="0 0 330 215"
   version="1.1"
   id="svg34"
   xmlns="http://www.w3.org/2000/svg"
   xmlns:svg="http://www.w3.org/2000/svg">
  <defs
     id="defs34" />
  <g
     id="g8"
     transform="translate(-112.94216,-185.65929)">
    <polygon
       points="417.26404,341.12956 397.6009,376.96544 406.89182,382.06282 430.97637,348.65319 "
       fill="#ffb6b6"
       id="polygon7" />
    <path
       d="m 429.54673,394.22206 v 0 c 0.0219,0.64593 -0.68834,2.30211 -0.99925,2.86867 v 0 c -0.95565,1.74145 -3.14208,2.37851 -4.88359,1.42283 l -28.77137,-15.7888 c -1.18801,-0.65194 -1.62263,-2.14354 -0.97066,-3.3316 l 0.65734,-1.19784 c 0,0 0.55235,-4.3812 5.91774,-7.21052 0,0 1.73527,5.47313 10.16374,3.0175 l 3.20021,-2.02657 6.95441,14.87065 6.00399,4.32604 c 1.31356,0.94643 2.67242,1.43153 2.72732,3.04957 l 1.1e-4,6e-5 z"
       fill="#2f2e41"
       id="path8" />
  </g>
  <path
     d="M 308.37284,1.6900667 H 22.412882 c -10.48999,0 -19.0200197,8.5299703 -19.0200197,19.0199593 V 194.67005 c 0,10.48999 8.5300297,19.02002 19.0200197,19.02002 H 308.37284 c 10.48999,0 19.02002,-8.53003 19.02002,-19.02002 V 20.710026 c 0,-10.489989 -8.53003,-19.0199593 -19.02002,-19.0199593 z"
     fill="#ffffff"
     id="path13" />
  <path
     d="M 308.37284,1.6900667 H 22.412882 c -10.48999,0 -19.0200197,8.5299703 -19.0200197,19.0199593 V 194.67005 c 0,10.48999 8.5300297,19.02002 19.0200197,19.02002 H 308.37284 c 10.48999,0 19.02002,-8.53003 19.02002,-19.02002 V 20.710026 c 0,-10.489989 -8.53003,-19.0199593 -19.02002,-19.0199593 z M 325.39286,136.99377 c 0,41.25363 -33.44267,74.6963 -74.6963,74.6963 H 22.412882 c -9.3999,0 -17.0200197,-7.62012 -17.0200197,-17.02002 V 20.710026 c 0,-9.39986 7.6200897,-17.0199594 17.0199597,-17.0199594 H 308.37284 c 9.3999,0 17.02002,7.6201194 17.02002,17.0200194 z"
     fill="#3f3d56"
     id="path14" />
  <path
     d="m 132.42289,172.37704 h -28.06006 c -1.40997,0 -2.56,1.15002 -2.56,2.56 0,1.41998 1.15002,2.57001 2.56,2.57001 h 28.06006 c 1.40997,0 2.56,-1.15002 2.56,-2.57001 0,-1.40997 -1.15002,-2.56 -2.56,-2.56 z"
     fill="#e6e6e6"
     id="path19" />
  <path
     d="m 179.42289,172.37704 h -28.06006 c -1.40997,0 -2.56,1.15002 -2.56,2.56 0,1.41998 1.15002,2.57001 2.56,2.57001 h 28.06006 c 1.40997,0 2.56,-1.15002 2.56,-2.57001 0,-1.40997 -1.15002,-2.56 -2.56,-2.56 z"
     fill="#e6e6e6"
     id="path20" />
  <path
     d="m 226.42289,172.37704 h -28.06006 c -1.40997,0 -2.56,1.15002 -2.56,2.56 0,1.41998 1.15002,2.57001 2.56,2.57001 h 28.06006 c 1.40997,0 2.56,-1.15002 2.56,-2.57001 0,-1.40997 -1.15002,-2.56 -2.56,-2.56 z"
     fill="#e6e6e6"
     id="path21" />
  <g
     id="g28"
     transform="translate(-112.94216,-185.65929)">
    <path
       d="m 337.92914,277.75097 c 4.54504,3.98828 -0.95987,11.8698 -2.73469,17.32528 -2.76513,8.4995 -11.49262,13.55612 -20.29417,12.00046 -6.81769,-1.20502 -13.67877,-2.05663 -20.581,-2.54571 -7.35986,-0.52002 -14.76001,-0.63 -22.21997,-0.33002 -7.75,0.31 -15.55005,1.08002 -23.42017,2.31 l -0.1317,0.0204 c -9.03164,1.4051 -17.68699,-4.01936 -20.29699,-12.77908 -1.51052,-5.06964 -6.20644,-12.02328 -2.32131,-16.00137 11.99109,-12.27771 5.61877,-16.38232 4.20837,-21.33221 -2.21082,-7.75922 10.65189,-12.00671 18.67841,-11.18847 0.33445,0.0341 0.6689,0.0677 1.00335,0.1007 11.8501,1.16998 23.69995,1.63 35.55005,1.38 2.97998,-0.05 5.96997,-0.16003 8.94995,-0.31 6.75945,-0.33318 13.51479,-0.89624 20.27129,-1.69179 7.85142,-0.92448 21.62886,3.23189 18.63887,10.55025 -3.08081,7.54059 -3.4198,15.3667 4.69971,22.49152 z"
       fill="#1696b6"
       opacity="0.7"
       id="path26" />
    <path
       d="m 294.31927,246.401 v 58.13 c -7.35986,-0.52002 -14.76001,-0.63 -22.21997,-0.33002 -7.75,0.31 -15.55005,1.08002 -23.42017,2.31 1.05005,-9.72998 0.38013,-19.63 7.89014,-23.26001 9.29004,-4.5 1.04004,-22.66998 -6.75,-37.91998 11.8501,1.16998 23.69995,1.63 35.55005,1.38 2.97998,-0.05 5.96997,-0.16003 8.94995,-0.31 z"
       fill="#3f3d56"
       opacity="0.7"
       id="path27" />
    <path
       d="m 337.92914,277.75097 c 4.45923,4.08411 -0.95987,11.8698 -2.73469,17.32528 -2.76513,8.4995 -11.49262,13.55612 -20.29417,12.00046 -6.81769,-1.20502 -13.67877,-2.05663 -20.581,-2.54571 -7.35986,-0.52002 -14.76001,-0.63 -22.21997,-0.33002 -6.97998,-9.01001 -9.65015,-17.28003 -3.22998,-22.48999 7.27002,-5.89001 9.80005,-20.37 16.5,-35 2.97998,-0.05 5.96997,-0.16003 8.94995,-0.31 6.75945,-0.33318 13.51479,-0.89624 20.27129,-1.69179 7.85142,-0.92448 21.96565,3.37868 18.63887,10.55025 -3.29736,7.10815 -3.70764,14.79138 4.69971,22.49152 z"
       fill="#ff6884"
       opacity="0.7"
       id="path28" />
  </g>
  <path
     d="m 156.66699,107.82586 h -28.06006 c -1.40997,0 -2.56,1.15002 -2.56,2.56 0,1.41998 1.15002,2.57001 2.56,2.57001 h 28.06006 c 1.40997,0 2.56,-1.15002 2.56,-2.57001 0,-1.40997 -1.15002,-2.56 -2.56,-2.56 z"
     fill="#3f3d56"
     id="path29" />
  <path
     d="m 206.66699,89.825856 h -28.06006 c -1.40997,0 -2.56,1.15002 -2.56,2.56 0,1.41998 1.15002,2.57001 2.56,2.57001 h 28.06006 c 1.40997,0 2.56,-1.15002 2.56,-2.57001 0,-1.40997 -1.15002,-2.56 -2.56,-2.56 z"
     fill="#3f3d56"
     id="path30" />
  <path
     d="m 167.66699,72.825856 h -28.06006 c -1.40997,0 -2.56,1.15002 -2.56,2.56 0,1.41998 1.15002,2.57001 2.56,2.57001 h 28.06006 c 1.40997,0 2.56,-1.15002 2.56,-2.57001 0,-1.40997 -1.15002,-2.56 -2.56,-2.56 z"
     fill="#3f3d56"
     id="path31" />
  <g
     id="g32"
     transform="translate(-112.94216,-185.65929)">
    <rect
       x="137.7164"
       y="289.31088"
       width="104.0089"
       height="1"
       fill="#3f3d56"
       id="rect31" />
    <path
       d="m 158.7253,299.16432 c -5.23828,0 -9.5,-4.26172 -9.5,-9.5 0,-5.23828 4.26172,-9.5 9.5,-9.5 5.23828,0 9.5,4.26172 9.5,9.5 0,5.23828 -4.26172,9.5 -9.5,9.5 z m 0,-18 c -4.68701,0 -8.5,3.81348 -8.5,8.5 0,4.68652 3.81299,8.5 8.5,8.5 4.68701,0 8.5,-3.81348 8.5,-8.5 0,-4.68652 -3.81299,-8.5 -8.5,-8.5 z"
       fill="#3f3d56"
       id="path32" />
    <circle
       cx="158.7253"
       cy="289.66431"
       r="5"
       fill="#1696b6"
       id="circle32" />
  </g>
  <g
     id="g33"
     transform="translate(-112.94216,-185.65929)">
    <rect
       x="306.94473"
       y="284.31088"
       width="104.0089"
       height="1"
       fill="#3f3d56"
       id="rect32" />
    <path
       d="m 380.44474,284.66432 c 0,-5.23828 4.26172,-9.5 9.5,-9.5 5.23828,0 9.5,4.26172 9.5,9.5 0,5.23828 -4.26172,9.5 -9.5,9.5 -5.23828,0 -9.5,-4.26172 -9.5,-9.5 z m 1,0 c 0,4.68652 3.81299,8.5 8.5,8.5 4.68701,0 8.5,-3.81348 8.5,-8.5 0,-4.68652 -3.81299,-8.5 -8.5,-8.5 -4.68701,0 -8.5,3.81348 -8.5,8.5 z"
       fill="#3f3d56"
       id="path33" />
    <circle
       cx="389.94473"
       cy="284.66431"
       r="5"
       fill="#ff6884"
       id="circle33" />
  </g>
  <g
     id="g34"
     transform="translate(-112.94216,-185.65929)">
    <rect
       x="166.7164"
       y="253.31088"
       width="104.0089"
       height="1"
       fill="#3f3d56"
       id="rect33" />
    <path
       d="m 187.7253,263.16432 c -5.23828,0 -9.5,-4.26172 -9.5,-9.5 0,-5.23828 4.26172,-9.5 9.5,-9.5 5.23828,0 9.5,4.26172 9.5,9.5 0,5.23828 -4.26172,9.5 -9.5,9.5 z m 0,-18 c -4.68701,0 -8.5,3.81348 -8.5,8.5 0,4.68652 3.81299,8.5 8.5,8.5 4.68701,0 8.5,-3.81348 8.5,-8.5 0,-4.68652 -3.81299,-8.5 -8.5,-8.5 z"
       fill="#3f3d56"
       id="path34" />
    <circle
       cx="187.7253"
       cy="253.66432"
       r="5"
       fill="#3f3d56"
       id="circle34" />
  </g>
</svg>
