<?xml version="1.0" encoding="UTF-8" standalone="no"?>
<svg
   data-name="Layer 1"
   width="780"
   height="540"
   viewBox="0 0 779.99999 540"
   version="1.1"
   id="svg30"
   xmlns="http://www.w3.org/2000/svg"
   xmlns:svg="http://www.w3.org/2000/svg">
  <defs
     id="defs30" />
  <path
     d="M 424.44336,0 H 48.125 A 48.17928,48.17928 0 0 0 0,48.12512 v 441.87579 a 48.17923,48.17923 0 0 0 48.125,48.12506 h 376.31836 a 48.17923,48.17923 0 0 0 48.125,-48.12506 V 48.12512 A 48.17928,48.17928 0 0 0 424.44336,0 Z"
     fill="#f2f2f2"
     id="path1" />
  <path
     d="M 424.44385,13.85418 H 48.125 A 34.30948,34.30948 0 0 0 13.854,48.12512 v 441.87579 a 34.30946,34.30946 0 0 0 34.271,34.27088 h 376.31885 a 34.30937,34.30937 0 0 0 34.27051,-34.27088 V 48.12512 A 34.30938,34.30938 0 0 0 424.44385,13.85418 Z"
     fill="#ffffff"
     id="path2" />
  <path
     d="M 367.80757,142.33981 H 177.50589 a 8.01411,8.01411 0 0 1 0,-16.02822 h 190.30168 a 8.01411,8.01411 0 1 1 0,16.02822 z"
     fill="#f2f2f2"
     id="path3" />
  <path
     d="m 400.86579,169.38745 h -223.3599 a 8.01412,8.01412 0 0 1 0,-16.02823 h 223.3599 a 8.01412,8.01412 0 0 1 0,16.02823 z"
     fill="#f2f2f2"
     id="path4" />
  <path
     d="M 367.80757,263.55328 H 177.50589 a 8.01411,8.01411 0 0 1 0,-16.02822 h 190.30168 a 8.01411,8.01411 0 1 1 0,16.02822 z"
     fill="#f2f2f2"
     id="path5" />
  <path
     d="m 400.86579,290.60092 h -223.3599 a 8.01412,8.01412 0 0 1 0,-16.02823 h 223.3599 a 8.01412,8.01412 0 0 1 0,16.02823 z"
     fill="#f2f2f2"
     id="path6" />
  <path
     d="M 367.80757,384.76675 H 177.50589 a 8.014115,8.014115 0 0 1 0,-16.02823 h 190.30168 a 8.01412,8.01412 0 1 1 0,16.02823 z"
     fill="#f2f2f2"
     id="path7" />
  <path
     d="m 400.86579,411.81439 h -223.3599 a 8.01412,8.01412 0 0 1 0,-16.02823 h 223.3599 a 8.01412,8.01412 0 0 1 0,16.02823 z"
     fill="#f2f2f2"
     id="path8" />
  <path
     d="M 134.87718,181.66592 H 67.53123 a 3.847,3.847 0 0 1 -3.84277,-3.84277 v -59.94727 a 3.847,3.847 0 0 1 3.84277,-3.84277 h 67.34595 a 3.847,3.847 0 0 1 3.84277,3.84277 v 59.94727 a 3.847,3.847 0 0 1 -3.84277,3.84277 z"
     fill="#e6e6e6"
     id="path9" />
  <path
     d="M 134.87718,302.87939 H 67.53123 a 3.847,3.847 0 0 1 -3.84277,-3.84277 v -59.94723 a 3.847,3.847 0 0 1 3.84277,-3.84277 h 67.34595 a 3.847,3.847 0 0 1 3.84277,3.84277 v 59.94727 a 3.847,3.847 0 0 1 -3.84277,3.84273 z"
     fill="#e6e6e6"
     id="path10" />
  <path
     d="M 134.87718,424.09286 H 67.53123 a 3.847,3.847 0 0 1 -3.84277,-3.84277 v -59.94727 a 3.847,3.847 0 0 1 3.84277,-3.84277 h 67.34595 a 3.847,3.847 0 0 1 3.84277,3.84277 v 59.94727 a 3.847,3.847 0 0 1 -3.84277,3.84277 z"
     fill="#e6e6e6"
     id="path11" />
  <path
     d="m 755.95495,417.91039 2.98548,-26.10867 14.969,-130.90768 2.98548,-26.10867 A 48.17929,48.17929 0 0 0 734.54874,181.50455 L 394.88641,142.66481 a 48.17924,48.17924 0 0 0 -53.28086,42.346 l -0.008,0.0674 -20.92459,182.99019 -0.008,0.0674 a 48.17923,48.17923 0 0 0 42.34611,53.2808 l 339.66296,38.83985 a 48.17929,48.17929 0 0 0 53.28092,-42.34606 z"
     fill="#e6e6e6"
     id="path12" />
  <path
     d="m 742.1904,416.33696 3.5361,-30.924 13.86792,-121.278 3.536,-30.92349 a 34.30948,34.30948 0 0 0 -30.1556,-37.94256 L 393.31249,156.42912 a 34.30948,34.30948 0 0 0 -37.94245,30.15568 l -0.008,0.0674 -20.9246,182.99016 -0.008,0.0679 a 34.30934,34.30934 0 0 0 30.1556,37.94208 l 339.66238,38.83977 a 34.30936,34.30936 0 0 0 37.94245,-30.1552 z"
     fill="#ffffff"
     id="path13" />
  <path
     d="m 686.59326,250.41633 -189.0696,-21.61976 a 8.01412,8.01412 0 1 1 1.82093,-15.92446 l 189.0696,21.61976 a 8.01412,8.01412 0 0 1 -1.82093,15.92446 z"
     fill="#e6e6e6"
     id="path14" />
  <path
     d="m 716.36463,281.04452 -221.9138,-25.37543 a 8.01412,8.01412 0 1 1 1.82094,-15.92446 l 221.91379,25.37544 a 8.0141109,8.0141109 0 0 1 -1.82093,15.92445 z"
     fill="#e6e6e6"
     id="path15" />
  <path
     d="M 710.17737,334.64097 383.00773,297.22972 a 8.01412,8.01412 0 0 1 1.82093,-15.92446 l 327.16968,37.41125 a 8.01412,8.01412 0 1 1 -1.82094,15.92446 z"
     fill="#e6e6e6"
     id="path16" />
  <path
     d="m 708.15592,361.63371 -328.221,-37.53147 a 8.01412,8.01412 0 0 1 1.82093,-15.92446 l 328.221,37.53147 a 8.01412,8.01412 0 0 1 -1.82093,15.92446 z"
     fill="#e6e6e6"
     id="path17" />
  <path
     d="M 704.15616,387.29783 376.98649,349.88658 a 8.01412,8.01412 0 1 1 1.82093,-15.92446 l 327.16967,37.41127 a 8.01412,8.01412 0 0 1 -1.82093,15.92446 z"
     fill="#e6e6e6"
     id="path18" />
  <path
     d="m 702.13473,414.29057 -328.221,-37.53147 a 8.01412,8.01412 0 0 1 1.82093,-15.92446 l 328.221,37.53147 a 8.01412,8.01412 0 1 1 -1.82093,15.92446 z"
     fill="#e6e6e6"
     id="path19" />
  <path
     d="m 450.70318,263.02511 -66.90992,-7.651 a 3.847,3.847 0 0 1 -3.38133,-4.25447 l 6.81048,-59.55914 a 3.847,3.847 0 0 1 4.25446,-3.38133 l 66.90993,7.651 a 3.847,3.847 0 0 1 3.38132,4.25446 l -6.81047,59.55915 a 3.847,3.847 0 0 1 -4.25447,3.38133 z"
     fill="#1696b6"
     id="path20" />
</svg>
